<svg width="240" height="139" viewBox="0 0 240 139" fill="none" xmlns="http://www.w3.org/2000/svg">
<circle cx="236.32" cy="136.145" r="2.8546" transform="rotate(-180 236.32 136.145)" fill="#081F33"/>
<circle cx="202.997" cy="136.145" r="2.8546" transform="rotate(-180 202.997 136.145)" fill="#081F33"/>
<circle cx="169.674" cy="136.145" r="2.8546" transform="rotate(-180 169.674 136.145)" fill="#081F33"/>
<circle cx="136.351" cy="136.145" r="2.8546" transform="rotate(-180 136.351 136.145)" fill="#081F33"/>
<circle cx="103.029" cy="136.145" r="2.8546" transform="rotate(-180 103.029 136.145)" fill="#081F33"/>
<circle cx="69.7064" cy="136.145" r="2.8546" transform="rotate(-180 69.7064 136.145)" fill="#081F33"/>
<circle cx="36.3837" cy="136.145" r="2.8546" transform="rotate(-180 36.3837 136.145)" fill="#081F33"/>
<circle cx="3.06093" cy="136.145" r="2.8546" transform="rotate(-180 3.06093 136.145)" fill="#081F33"/>
<circle cx="236.32" cy="102.823" r="2.8546" transform="rotate(-180 236.32 102.823)" fill="#081F33"/>
<circle cx="202.997" cy="102.823" r="2.8546" transform="rotate(-180 202.997 102.823)" fill="#081F33"/>
<circle cx="169.674" cy="102.823" r="2.8546" transform="rotate(-180 169.674 102.823)" fill="#081F33"/>
<circle cx="136.351" cy="102.823" r="2.8546" transform="rotate(-180 136.351 102.823)" fill="#081F33"/>
<circle cx="103.029" cy="102.823" r="2.8546" transform="rotate(-180 103.029 102.823)" fill="#081F33"/>
<circle cx="69.7064" cy="102.823" r="2.8546" transform="rotate(-180 69.7064 102.823)" fill="#081F33"/>
<circle cx="36.3837" cy="102.823" r="2.8546" transform="rotate(-180 36.3837 102.823)" fill="#081F33"/>
<circle cx="3.06093" cy="102.823" r="2.8546" transform="rotate(-180 3.06093 102.823)" fill="#081F33"/>
<circle cx="236.32" cy="69.5009" r="2.8546" transform="rotate(-180 236.32 69.5009)" fill="#081F33"/>
<circle cx="202.997" cy="69.5009" r="2.8546" transform="rotate(-180 202.997 69.5009)" fill="#081F33"/>
<circle cx="169.674" cy="69.5009" r="2.8546" transform="rotate(-180 169.674 69.5009)" fill="#081F33"/>
<circle cx="136.351" cy="69.5009" r="2.8546" transform="rotate(-180 136.351 69.5009)" fill="#081F33"/>
<circle cx="103.029" cy="69.5009" r="2.8546" transform="rotate(-180 103.029 69.5009)" fill="#081F33"/>
<circle cx="69.7064" cy="69.5009" r="2.8546" transform="rotate(-180 69.7064 69.5009)" fill="#081F33"/>
<circle cx="36.3837" cy="69.5009" r="2.8546" transform="rotate(-180 36.3837 69.5009)" fill="#081F33"/>
<circle cx="3.06093" cy="69.5009" r="2.8546" transform="rotate(-180 3.06093 69.5009)" fill="#081F33"/>
<circle cx="236.32" cy="36.1767" r="2.8546" transform="rotate(-180 236.32 36.1767)" fill="#081F33"/>
<circle cx="202.997" cy="36.1767" r="2.8546" transform="rotate(-180 202.997 36.1767)" fill="#081F33"/>
<circle cx="169.674" cy="36.1767" r="2.8546" transform="rotate(-180 169.674 36.1767)" fill="#081F33"/>
<circle cx="136.351" cy="36.1767" r="2.8546" transform="rotate(-180 136.351 36.1767)" fill="#081F33"/>
<circle cx="103.029" cy="36.1767" r="2.8546" transform="rotate(-180 103.029 36.1767)" fill="#081F33"/>
<circle cx="69.7064" cy="36.1767" r="2.8546" transform="rotate(-180 69.7064 36.1767)" fill="#081F33"/>
<circle cx="36.3837" cy="36.1767" r="2.8546" transform="rotate(-180 36.3837 36.1767)" fill="#081F33"/>
<circle cx="3.06093" cy="36.1767" r="2.8546" transform="rotate(-180 3.06093 36.1767)" fill="#081F33"/>
<circle cx="236.32" cy="2.85439" r="2.8546" transform="rotate(-180 236.32 2.85439)" fill="#081F33"/>
<circle cx="202.997" cy="2.85439" r="2.8546" transform="rotate(-180 202.997 2.85439)" fill="#081F33"/>
<circle cx="169.674" cy="2.85439" r="2.8546" transform="rotate(-180 169.674 2.85439)" fill="#081F33"/>
<circle cx="136.351" cy="2.85439" r="2.8546" transform="rotate(-180 136.351 2.85439)" fill="#081F33"/>
<circle cx="103.029" cy="2.85439" r="2.8546" transform="rotate(-180 103.029 2.85439)" fill="#081F33"/>
<circle cx="69.7059" cy="2.85439" r="2.8546" transform="rotate(-180 69.7059 2.85439)" fill="#081F33"/>
<circle cx="36.3837" cy="2.85439" r="2.8546" transform="rotate(-180 36.3837 2.85439)" fill="#081F33"/>
<circle cx="3.06093" cy="2.85439" r="2.8546" transform="rotate(-180 3.06093 2.85439)" fill="#081F33"/>
</svg>
