<svg width="65" height="69" viewBox="0 0 65 69" fill="none" xmlns="http://www.w3.org/2000/svg">
<path d="M19.5431 37.0856V68.3053H6.68306V37.0856H0V26.257H6.6841V22.6186C6.6841 12.9735 12.5224 6.37412 22.7592 6.37412C24.8743 6.37412 27.2748 6.37412 28.6821 6.37412V18.4511C28.105 18.4511 27.0156 18.4971 25.0437 18.4971C22.8439 18.4971 19.5442 18.3873 19.5442 22.6175V26.256H47.8865V68.3053H35.0264V37.0856H19.5431Z" fill="white"/>
<path d="M35.5676 6.37425V18.4303H47.8412V6.37425H35.5676Z" fill="#16BAC5"/>
<path opacity="0.5" d="M41.749 -9.53674e-07V12.0561H54.0225V-9.53674e-07H41.749Z" fill="#F4D06F"/>
<path d="M58.646 68.3053C61.9657 68.3053 64.6568 65.6142 64.6568 62.2945C64.6568 58.9748 61.9657 56.2837 58.646 56.2837C55.3264 56.2837 52.6353 58.9748 52.6353 62.2945C52.6353 65.6142 55.3264 68.3053 58.646 68.3053Z" fill="white"/>
</svg>
