<svg xmlns="http://www.w3.org/2000/svg" viewBox="0 0 413.91 431.88"><defs><style>.cls-1{fill:#231f20;}.cls-2{fill:#16bac5;}.cls-3{fill:#f4d06f;opacity:0.5;}</style></defs><g id="Layer_2" data-name="Layer 2"><g id="Layer_1-2" data-name="Layer 1"><path class="cls-1" d="M123.57,234.49V431.88H42.26V234.49H0V166H42.26V143C42.26,82,79.17,40.3,143.9,40.3h37.45v76.37c0-.4-11.19,0-11.94,0q-8.25.21-16.51.53c-4.73.19-9.57.37-14.14,1.77a19.92,19.92,0,0,0-10.2,6.76,25,25,0,0,0-4.74,12.49,45,45,0,0,0-.25,4.78v23H302.78V431.88H221.47V234.49Z"/><rect class="cls-2" x="225.58" y="39.62" width="76.23" height="77.6" transform="translate(185.28 342.11) rotate(-90)"/><rect class="cls-3" x="264.66" y="-0.69" width="76.23" height="77.6" transform="translate(264.66 340.89) rotate(-90)"/><circle class="cls-1" cx="381.88" cy="399.85" r="32.03"/></g></g></svg>