<svg width="1197" height="268" viewBox="0 0 1197 268" fill="none" xmlns="http://www.w3.org/2000/svg">
<path d="M212.949 101.48H249.555V121.421C253.798 113.79 260.296 107.657 268.158 103.863C276.642 99.7698 285.964 97.7121 295.383 97.8539C307.284 97.8539 317.851 100.435 327.083 105.596C336.167 110.619 343.646 118.109 348.66 127.2C353.82 136.448 356.416 147.131 356.45 159.25V263.414H317.4V168.465C317.4 157.782 314.373 149.295 308.319 143.005C302.265 136.715 294.378 133.59 284.659 133.63C274.94 133.63 267.054 136.805 260.999 143.155C254.945 149.505 251.921 157.942 251.928 168.465V263.414H212.949V101.48Z" fill="white"/>
<path d="M431.394 182.157L374.542 101.48H420.38L454.573 151.789L488.506 101.48H534.074L477.522 182.157L533.773 263.414H488.236L454.573 213.115L420.681 263.414H374.843L431.394 182.157Z" fill="white"/>
<path d="M555.501 24.5886H594.48V263.414H555.501V24.5886Z" fill="white"/>
<path d="M639.126 254.5C629 246.167 623.94 234.853 623.947 220.557C623.947 207.062 628.509 195.851 637.634 186.924C646.759 177.997 660.834 171.94 679.858 168.755L728.068 161.023V155.665C728.118 152.328 727.409 149.024 725.995 146.002C724.581 142.979 722.5 140.318 719.908 138.217C714.455 133.543 707.262 131.206 698.331 131.206C690.372 131.033 682.561 133.378 676.013 137.907C669.699 142.305 664.823 148.468 661.995 155.625L630.195 140.22C634.961 127.534 643.692 117.311 656.388 109.552C669.084 101.793 683.582 97.9106 699.883 97.9039C713.166 97.9039 724.821 100.334 734.847 105.195C744.447 109.704 752.63 116.757 758.507 125.587C764.316 134.518 767.321 144.982 767.138 155.635V263.414H730.191V246.167C717.508 260.056 700.644 267 679.597 267C662.736 267 649.246 262.833 639.126 254.5ZM670.676 232.365C674.841 235.644 680.181 237.283 686.696 237.283C698.992 237.283 708.961 233.414 716.604 225.675C720.347 221.977 723.298 217.554 725.275 212.677C727.253 207.801 728.217 202.572 728.108 197.31V190.76L687.337 197.611C672.058 200.589 664.421 207.733 664.428 219.044C664.323 221.604 664.837 224.15 665.924 226.469C667.012 228.788 668.642 230.81 670.676 232.365Z" fill="white"/>
<path d="M862.188 261.351C853.53 257.845 845.829 252.332 839.719 245.266V263.414H803.113V24.5886H842.062V117.855C854.164 104.554 870.732 97.904 891.765 97.904C907.244 97.904 921.135 101.626 933.437 109.072C945.668 116.442 955.731 126.92 962.604 139.439C969.747 152.239 973.318 166.579 973.318 182.457C973.318 198.335 969.747 212.691 962.604 225.525C955.728 238.042 945.666 248.519 933.437 255.892C921.135 263.338 907.148 267.057 891.475 267.05C881.43 267.122 871.473 265.184 862.188 261.351ZM910.699 225.024C917.588 220.802 923.196 214.78 926.919 207.607C930.961 199.848 933.005 191.204 932.867 182.457C933.022 173.743 930.976 165.131 926.919 157.418C923.14 150.284 917.544 144.276 910.699 140C905.514 136.762 899.716 134.63 893.669 133.74C887.622 132.85 881.456 133.22 875.559 134.828C869.662 136.435 864.16 139.245 859.4 143.081C854.64 146.916 850.725 151.695 847.9 157.117C843.917 164.949 841.922 173.641 842.092 182.427C841.922 191.209 843.917 199.898 847.9 207.727C851.577 214.912 857.193 220.923 864.11 225.079C871.028 229.236 878.97 231.371 887.039 231.244C895.351 231.415 903.545 229.261 910.699 225.024Z" fill="white"/>
<path d="M1019.63 254.5C1006.82 246.167 998.032 235.053 993.253 221.158L1022.42 207.136C1026.79 216.257 1032.64 223.401 1039.98 228.57C1047.19 233.69 1055.84 236.4 1064.68 236.312C1071.62 236.312 1077.22 234.773 1081.49 231.694C1083.54 230.293 1085.19 228.399 1086.31 226.189C1087.43 223.978 1087.97 221.521 1087.89 219.045C1087.95 216.917 1087.48 214.808 1086.52 212.91C1085.56 211.011 1084.14 209.385 1082.39 208.177C1078.39 205.342 1073.9 203.271 1069.15 202.068L1042.66 194.626C1028.97 190.66 1018.6 184.607 1011.56 176.468C1004.57 168.492 1000.8 158.196 1000.99 147.592C1000.99 137.663 1003.52 128.983 1008.58 121.551C1013.88 113.905 1021.19 107.876 1029.71 104.134C1038.74 99.9672 1049.11 97.8839 1060.81 97.8839C1076.09 97.8839 1089.58 101.606 1101.29 109.051C1112.82 116.259 1121.62 127.097 1126.32 139.86L1096.55 153.882C1094.05 146.635 1089.17 140.445 1082.72 136.314C1076.14 131.978 1068.42 129.701 1060.55 129.774C1054 129.774 1048.84 131.26 1045.07 134.231C1043.27 135.577 1041.82 137.334 1040.83 139.354C1039.85 141.375 1039.36 143.602 1039.41 145.849C1039.34 147.942 1039.79 150.019 1040.72 151.892C1041.66 153.764 1043.05 155.372 1044.77 156.566C1048.94 159.422 1053.57 161.537 1058.47 162.816L1084.36 170.558C1097.85 174.324 1108.16 180.277 1115.31 188.416C1122.41 196.453 1126.23 206.867 1126.02 217.592C1126.19 226.773 1123.48 235.775 1118.28 243.343C1112.86 250.998 1105.45 257.021 1096.85 260.76C1087.72 264.927 1077.01 267.01 1064.71 267.01C1047.45 267.003 1032.42 262.833 1019.63 254.5Z" fill="white"/>
<path d="M75.3551 143.025V263.414H25.7725V143.025H0V101.259H25.7725V87.2372C25.7725 50.0387 48.2809 24.5887 87.7407 24.5887H110.58V71.162C110.58 70.9216 103.761 71.162 103.3 71.162C99.9461 71.2521 96.5919 71.3523 93.2877 71.4825C90.3765 71.4754 87.4763 71.8389 84.6568 72.5642C82.2043 73.2504 80.0315 74.6947 78.449 76.6906C76.8072 78.9158 75.8064 81.5485 75.5553 84.3026C75.4501 85.2739 75.4 86.2503 75.4051 87.2272V101.249H184.623V263.414H135.04V143.025H75.3551Z" fill="white"/>
<path d="M137.133 24.5887V71.0818H184.453V24.5887H137.133Z" fill="#16BAC5"/>
<path opacity="0.5" d="M160.963 -4.19617e-05V46.4931H208.283V-4.19617e-05H160.963Z" fill="#F4D06F"/>
<path d="M1171.06 267.01C1185.39 267.01 1197 255.391 1197 241.059C1197 226.727 1185.39 215.108 1171.06 215.108C1156.73 215.108 1145.11 226.727 1145.11 241.059C1145.11 255.391 1156.73 267.01 1171.06 267.01Z" fill="white"/>
</svg>
